<svg xmlns="http://www.w3.org/2000/svg" width="1200" height="630" viewBox="0 0 1200 630">
  <defs>
    <linearGradient id="g" x1="0" y1="0" x2="1" y2="1">
      <stop offset="0" stop-color="#0a0b0d"/><stop offset="1" stop-color="#13171c"/>
    </linearGradient>
    <radialGradient id="glow" cx="78%" cy="0%" r="60%">
      <stop offset="0" stop-color="#c6f24e" stop-opacity="0.18"/><stop offset="1" stop-color="#c6f24e" stop-opacity="0"/>
    </radialGradient>
  </defs>
  <rect width="1200" height="630" fill="url(#g)"/>
  <rect width="1200" height="630" fill="url(#glow)"/>
  <g stroke="#b4d2c8" stroke-opacity="0.07" stroke-width="1">
    <path d="M0 90 H1200 M0 180 H1200 M0 270 H1200 M0 360 H1200 M0 450 H1200 M0 540 H1200"/>
    <path d="M100 0 V630 M250 0 V630 M400 0 V630 M550 0 V630 M700 0 V630 M850 0 V630 M1000 0 V630 M1150 0 V630"/>
  </g>
  <rect x="80" y="84" width="30" height="30" rx="8" fill="#c6f24e" transform="rotate(12 95 99)"/>
  <text x="128" y="110" font-family="Arial,sans-serif" font-size="34" font-weight="800" fill="#e8ede9">tunky<tspan fill="#c6f24e">.</tspan></text>
  <text x="80" y="300" font-family="Arial,sans-serif" font-size="92" font-weight="800" fill="#e8ede9">Convertimos tu empresa</text>
  <text x="80" y="400" font-family="Arial,sans-serif" font-size="92" font-weight="800" fill="#c6f24e">en IA-first.</text>
  <text x="80" y="480" font-family="Arial,sans-serif" font-size="30" fill="#9aa6a0">Agentes · copilotos · software a medida · dashboards de inteligencia</text>
  <text x="80" y="560" font-family="monospace" font-size="24" fill="#7be0c0">16+ tableros en producción  ·  Lima · LATAM</text>
</svg>
